<svg 
    xmlns="http://www.w3.org/2000/svg" 
    height="24" 
    viewBox="0 -960 960 960" 
    width="24">
    <path d="M162.308-520q-29.827 0-51.067-21.24t-21.24-51.067v-125.385q0-29.827 21.24-51.067t51.067-21.24H520V-520H162.308Zm0-59.999h297.693v-150.002H162.308q-5.385 0-8.847 3.462-3.462 3.462-3.462 8.847v125.385q0 5.385 3.462 8.847 3.462 3.461 8.847 3.461Zm0 409.998q-29.827 0-51.067-21.24t-21.24-51.067v-125.385q0-29.827 21.24-51.067T162.308-440H600v269.999H162.308Zm0-59.998h377.693v-150.002H162.308q-5.385 0-8.847 3.461-3.462 3.462-3.462 8.847v125.385q0 5.385 3.462 8.847 3.462 3.462 8.847 3.462ZM680-170.001V-520h-80v-269.999h265.384l-80 202.308h79.23L680-170.001ZM195-275h60v-60h-60v60Zm0-350h60v-60h-60v60Zm-45.001 45.001v-150.002 150.002Zm0 350V-380.001v150.002Z"/>
</svg>